<?xml version="1.0" encoding="UTF-8" standalone="no"?>
<svg width="8px" height="9px" viewBox="0 0 8 9" version="1.1" xmlns="http://www.w3.org/2000/svg" xmlns:xlink="http://www.w3.org/1999/xlink">
    <!-- Generator: Sketch 49.2 (51160) - http://www.bohemiancoding.com/sketch -->
    <title>chevron-cta</title>
    <desc>Created with Sketch.</desc>
    <defs></defs>
    <g id="Home" stroke="none" stroke-width="1" fill="none" fill-rule="evenodd">
        <g id="Homepage" transform="translate(-1297.000000, -853.000000)" fill="#FF539E">
            <g id="section-2" transform="translate(0.000000, 706.000000)">
                <g id="CTA-secondary" transform="translate(1172.000000, 140.000000)">
                    <path d="M128.950617,15.3950617 C128.132418,15.3950617 127.469136,14.7108671 127.469136,13.8668702 C127.469136,13.0228734 128.132418,12.3386788 128.950617,12.3386788 C129.768817,12.3386788 130.432099,13.0228734 130.432099,13.8668702 C130.432099,14.7108671 129.768817,15.3950617 128.950617,15.3950617 Z M125.987654,10.5502101 C125.169455,10.5502101 124.506173,9.8660155 124.506173,9.02201865 C124.506173,8.17802179 125.169455,7.49382716 125.987654,7.49382716 C126.805854,7.49382716 127.469136,8.17802179 127.469136,9.02201865 C127.469136,9.8660155 126.805854,10.5502101 125.987654,10.5502101 Z M131.91358,10.5502101 C131.095381,10.5502101 130.432099,9.8660155 130.432099,9.02201865 C130.432099,8.17802179 131.095381,7.49382716 131.91358,7.49382716 C132.73178,7.49382716 133.395062,8.17802179 133.395062,9.02201865 C133.395062,9.8660155 132.73178,10.5502101 131.91358,10.5502101 Z" id="chevron-cta" transform="translate(128.950617, 11.444444) rotate(-90.000000) translate(-128.950617, -11.444444) "></path>
                </g>
            </g>
        </g>
    </g>
</svg>