<?xml version="1.0" encoding="UTF-8"?>
<svg width="8px" height="9px" viewBox="0 0 8 9" version="1.1" xmlns="http://www.w3.org/2000/svg" xmlns:xlink="http://www.w3.org/1999/xlink">
    <!-- Generator: Sketch 49.1 (51147) - http://www.bohemiancoding.com/sketch -->
    <title>chevron</title>
    <desc>Created with Sketch.</desc>
    <defs></defs>
    <g id="Contact" stroke="none" stroke-width="1" fill="none" fill-rule="evenodd">
        <g transform="translate(-1297.000000, -504.000000)" fill="#FF539E" id="Form">
            <g transform="translate(846.000000, 202.000000)">
                <g id="CTA-secondary" transform="translate(409.000000, 295.000000)">
                    <g id="chevron" transform="translate(42.000000, 7.000000)">
                        <path d="M3.95061728,8.39506173 C3.13241765,8.39506173 2.4691358,7.71086709 2.4691358,6.86687024 C2.4691358,6.02287339 3.13241765,5.33867876 3.95061728,5.33867876 C4.76881691,5.33867876 5.43209877,6.02287339 5.43209877,6.86687024 C5.43209877,7.71086709 4.76881691,8.39506173 3.95061728,8.39506173 Z M0.987654321,3.55021013 C0.169454692,3.55021013 -0.49382716,2.8660155 -0.49382716,2.02201865 C-0.49382716,1.17802179 0.169454692,0.49382716 0.987654321,0.49382716 C1.80585395,0.49382716 2.4691358,1.17802179 2.4691358,2.02201865 C2.4691358,2.8660155 1.80585395,3.55021013 0.987654321,3.55021013 Z M6.91358025,3.55021013 C6.09538062,3.55021013 5.43209877,2.8660155 5.43209877,2.02201865 C5.43209877,1.17802179 6.09538062,0.49382716 6.91358025,0.49382716 C7.73177988,0.49382716 8.39506173,1.17802179 8.39506173,2.02201865 C8.39506173,2.8660155 7.73177988,3.55021013 6.91358025,3.55021013 Z" id="chevron-cta/pink" transform="translate(3.950617, 4.444444) rotate(-90.000000) translate(-3.950617, -4.444444) "></path>
                    </g>
                </g>
            </g>
        </g>
    </g>
</svg>