<?xml version="1.0" encoding="UTF-8"?>
<svg width="82px" height="31px" viewBox="0 0 82 31" version="1.1" xmlns="http://www.w3.org/2000/svg" xmlns:xlink="http://www.w3.org/1999/xlink">
    <!-- Generator: Sketch 49.1 (51147) - http://www.bohemiancoding.com/sketch -->
    <title>logo</title>
    <desc>Created with Sketch.</desc>
    <defs></defs>
    <g id="Home" stroke="none" stroke-width="1" fill="none" fill-rule="evenodd">
        <g id="Homepage" transform="translate(-135.000000, -47.000000)" fill="#3F566E">
            <g id="section-1" transform="translate(131.000000, 34.000000)">
                <g id="navbar" transform="translate(4.000000, 13.000000)">
                    <g id="logo">
                        <g id="iugo-logo">
                            <g id="Group-12" transform="translate(11.000000, 8.000000)">
                                <path d="M58.7093028,7.52558491 C58.7093028,10.3253491 56.4431878,12.6030849 53.6576614,12.6030849 C50.8832131,12.6030849 48.6260729,10.3253491 48.6260729,7.52558491 C48.6260729,6.17671698 49.1523556,4.89704717 50.1080223,3.9224717 C51.0657924,2.94563208 52.3263189,2.40775472 53.6576614,2.40775472 C54.9976982,2.40775472 56.2645349,2.94577358 57.2249694,3.92261321 C58.1821786,4.89619811 58.7093028,6.17572642 58.7093028,7.52558491 M59.6024269,3.21761321 C58.2386913,1.28784906 56.016328,0.135820755 53.6576614,0.135820755 C52.7892177,0.135820755 51.9101166,0.287235849 51.0448982,0.585820755 C49.0720039,1.26676415 47.4930154,2.86695283 46.8213143,4.86648113 C45.9978844,7.317 46.3299487,9.85468868 47.732528,11.8290283 C49.0874292,13.7362925 51.3025005,14.8750189 53.6576614,14.8750189 C54.515728,14.8750189 55.3858545,14.7289811 56.2440614,14.4408679 C58.2328016,13.7732264 59.8265143,12.183934 60.5073303,10.1896415 C61.3398752,7.75058491 61.0100545,5.20921698 59.6024269,3.21761321" id="Fill-2"></path>
                                <path d="M18.8073237,0.39975 L18.8073237,9.19456132 C18.8073237,11.2015896 17.483834,12.6030991 15.5889076,12.6030991 C13.7175398,12.6030991 12.410457,11.1848915 12.410457,9.15437264 L12.410457,0.39975 L10.059503,0.39975 L10.059503,9.29503302 C10.059503,12.4761651 12.4365398,14.875033 15.5889076,14.875033 C18.7639926,14.875033 21.1584179,12.4761651 21.1584179,9.29503302 L21.1584179,0.39975 L18.8073237,0.39975 Z" id="Fill-4"></path>
                                <path d="M40.2927577,7.84757547 L40.2930382,7.71682075 L35.6696589,7.71682075 L35.6696589,9.88601887 L36.1301738,9.88601887 C36.1457393,9.88743396 36.1615853,9.88814151 36.1775715,9.88814151 L38.0011209,9.88814151 L38.0011209,11.9243208 C37.9960726,11.9265849 37.9907439,11.9289906 37.9852749,11.9313962 C37.6415715,12.0876226 36.595737,12.5629528 35.1414129,12.5629528 C32.4548887,12.5629528 30.2692657,10.2850755 30.2692657,7.48531132 C30.2692657,4.67450943 32.4548887,2.38771698 35.1414129,2.38771698 C36.2761531,2.38771698 37.4798864,2.87436792 38.4424244,3.7214434 C38.4668244,3.74366038 38.4917853,3.76446226 38.516606,3.78328302 L38.8389945,4.05356604 L39.1059922,3.77111321 C39.1184726,3.75880189 39.1312336,3.74564151 39.1414703,3.73389623 C39.2912359,3.57257547 39.4439462,3.41323585 39.5916083,3.25899057 C39.6482611,3.19983962 39.704914,3.14068868 39.7614267,3.08139623 L39.7615669,3.08196226 L40.4307439,2.37583019 L39.905583,1.95073585 C38.4466313,0.729509434 36.8687646,0.135877358 35.0816749,0.135877358 C33.1281324,0.135877358 31.2937853,0.902858491 29.9163071,2.29559434 C28.5378474,3.68932075 27.7786428,5.54663208 27.7786428,7.52564151 C27.7786428,9.50210377 28.5379876,11.3524811 29.9165876,12.7357358 C31.2916818,14.1153113 33.1258887,14.8750755 35.0816749,14.8750755 C37.9754589,14.8750755 40.0724566,13.540783 40.0933508,13.5271981 L40.0972772,13.5246509 L40.1010634,13.5218208 C40.213668,13.4366321 40.3122497,13.2375283 40.3122497,13.0955943 C40.3122497,12.2909717 40.3072014,11.463 40.3022933,10.6623396 C40.2965439,9.73446226 40.2907945,8.77516981 40.2927577,7.84757547" id="Fill-6"></path>
                                <polygon id="Fill-8" points="0.0270643678 0.39975 0.0270643678 6.06536321 2.35810575 4.64743868 2.35810575 0.39975"></polygon>
                                <polygon id="Fill-10" points="0.0270643678 14.5501415 2.35810575 14.5501415 2.35810575 5.85580189 0.0270643678 7.27372642"></polygon>
                            </g>
                            <path d="M0,31 L82,31 L82,0 L0,0 L0,31 Z M2.52885824,28.3607972 L79.4350031,28.3607972 L79.4350031,2.57220211 L2.52885824,2.57220211 L2.52885824,28.3607972 Z" id="Fill-1"></path>
                        </g>
                    </g>
                </g>
            </g>
        </g>
    </g>
</svg>