<?xml version="1.0" encoding="UTF-8"?><!DOCTYPE svg PUBLIC "-//W3C//DTD SVG 1.1//EN" "http://www.w3.org/Graphics/SVG/1.1/DTD/svg11.dtd"><svg xmlns="http://www.w3.org/2000/svg"><symbol id="icon-arrow-left" viewBox="0 0 8 9">
    <title>
        cta-back-chevron/blue
    </title>
    <path d="M.5 4.5c0-.736.606-1.333 1.354-1.333.748 0 1.354.597 1.354 1.333s-.606 1.333-1.354 1.333A1.344 1.344 0 0 1 .5 4.5zm4.292-2.667C4.792 1.097 5.398.5 6.146.5 6.894.5 7.5 1.097 7.5 1.833c0 .737-.606 1.334-1.354 1.334a1.344 1.344 0 0 1-1.354-1.334zm0 5.334c0-.737.606-1.334 1.354-1.334.748 0 1.354.597 1.354 1.334 0 .736-.606 1.333-1.354 1.333a1.344 1.344 0 0 1-1.354-1.333z" fill-rule="evenodd"/>
</symbol><symbol id="icon-arrow-right" viewBox="0 0 8 9">
    <title>
        chevron-cta
    </title>
    <path d="M7.901 4.444c0 .819-.684 1.482-1.528 1.482s-1.528-.663-1.528-1.482c0-.818.684-1.481 1.528-1.481s1.528.663 1.528 1.481zM3.056 7.407c0 .819-.684 1.482-1.528 1.482S0 8.226 0 7.407c0-.818.684-1.481 1.528-1.481s1.528.663 1.528 1.481zm0-5.926c0 .819-.684 1.482-1.528 1.482S0 2.3 0 1.481C0 .663.684 0 1.528 0s1.528.663 1.528 1.481z" fill-rule="evenodd"/>
</symbol><symbol id="icon-chevron" viewBox="0 0 8 9">
    <title>
        chevron
    </title>
    <path d="M7.901 4.444c0 .819-.684 1.482-1.528 1.482s-1.528-.663-1.528-1.482c0-.818.684-1.481 1.528-1.481s1.528.663 1.528 1.481zM3.056 7.407c0 .819-.684 1.482-1.528 1.482S0 8.226 0 7.407c0-.818.684-1.481 1.528-1.481s1.528.663 1.528 1.481zm0-5.926c0 .819-.684 1.482-1.528 1.482S0 2.3 0 1.481C0 .663.684 0 1.528 0s1.528.663 1.528 1.481z" fill-rule="evenodd"/>
</symbol><symbol id="icon-facebook" viewBox="0 0 10 19">
    <title>
        facebook
    </title>
    <path d="M9.766.157v2.946H8.014c-.64 0-1.071.134-1.295.402-.223.268-.335.67-.335 1.205v2.11h3.27l-.435 3.303H6.384v8.471H2.97v-8.47H.123V6.82H2.97V4.387c0-1.384.387-2.457 1.161-3.22C4.904.404 5.934.023 7.222.023c1.093 0 1.941.045 2.544.134z" fill-rule="evenodd"/>
</symbol><symbol id="icon-logo" viewBox="0 0 82 31">
    <title>
        logo
    </title>
    <g fill-rule="evenodd">
        <path d="M69.71 15.526c0 2.8-2.267 5.077-5.052 5.077-2.775 0-5.032-2.278-5.032-5.077 0-1.35.526-2.629 1.482-3.604.958-.976 2.218-1.514 3.55-1.514 1.34 0 2.607.538 3.567 1.515a5.115 5.115 0 0 1 1.484 3.603m.893-4.308a7.291 7.291 0 0 0-5.944-3.082c-.869 0-1.748.151-2.613.45-1.973.68-3.552 2.281-4.224 4.28-.823 2.451-.491 4.989.912 6.963a7.274 7.274 0 0 0 5.925 3.046c.858 0 1.728-.146 2.586-.434a6.835 6.835 0 0 0 4.263-4.251c.833-2.44.503-4.98-.905-6.972"/>
        <path d="M29.807 8.4v8.795c0 2.007-1.323 3.408-3.218 3.408-1.871 0-3.179-1.418-3.179-3.449V8.4h-2.35v8.895c0 3.181 2.377 5.58 5.529 5.58 3.175 0 5.57-2.399 5.57-5.58V8.4h-2.352z"/>
        <path d="M51.293 15.848v-.131H46.67v2.169h.46a.524.524 0 0 0 .048.002H49v2.036l-.016.007a6.752 6.752 0 0 1-2.844.632c-2.686 0-4.872-2.278-4.872-5.078 0-2.81 2.186-5.097 4.872-5.097 1.135 0 2.339.486 3.301 1.333.025.023.05.043.075.062l.322.27.267-.282a.714.714 0 0 0 .035-.037c.15-.161.303-.32.45-.475l.17-.178v.001l.67-.706-.525-.425c-1.46-1.221-3.037-1.815-4.824-1.815a7.215 7.215 0 0 0-5.166 2.16 7.387 7.387 0 0 0-2.137 5.23c0 1.976.759 3.826 2.138 5.21a7.241 7.241 0 0 0 5.165 2.14c2.893 0 4.99-1.335 5.011-1.349l.004-.002.004-.003a.622.622 0 0 0 .211-.426c0-.805-.005-1.633-.01-2.434-.005-.928-.011-1.887-.01-2.814"/>
        <path d="M11.027 8.4v5.665l2.331-1.418V8.4z"/>
        <path d="M11.027 22.55h2.331v-8.694l-2.33 1.418z"/>
        <path d="M0 31h82V0H0v31zm2.529-2.64h76.906V2.573H2.529v25.789z"/>
    </g>
</symbol></svg>